<?xml version="1.0" standalone="no"?>
<!DOCTYPE svg PUBLIC "-//W3C//DTD SVG 20010904//EN"
 "http://www.w3.org/TR/2001/REC-SVG-20010904/DTD/svg10.dtd">
<svg version="1.0" xmlns="http://www.w3.org/2000/svg"
 width="766.000000pt" height="766.000000pt" viewBox="0 0 766.000000 766.000000"
 preserveAspectRatio="xMidYMid meet">
<metadata>
Created by potrace 1.14, written by Peter Selinger 2001-2017
</metadata>
<g transform="translate(0.000000,766.000000) scale(0.100000,-0.100000)"
fill="#000000" stroke="none">
<path d="M0 3830 l0 -3830 3830 0 3830 0 0 3830 0 3830 -3830 0 -3830 0 0
-3830z m1272 501 c2 -22 2 -45 0 -50 -2 -7 -63 -11 -175 -11 -95 0 -182 -3
-194 -6 -44 -12 -56 -63 -51 -219 4 -192 -2 -185 173 -185 88 0 135 4 143 12
7 7 12 40 12 80 l0 68 -105 0 -105 0 0 50 0 50 151 0 150 0 -3 -161 -3 -161
-28 -24 c-28 -24 -31 -24 -195 -21 -199 4 -229 13 -263 79 -20 38 -24 61 -27
194 -6 225 20 309 101 333 18 5 118 10 223 10 l192 1 4 -39z m280 -195 c4
-299 -12 -276 190 -276 130 0 149 -2 155 -17 4 -10 1 -19 -6 -21 -11 -4 -11
-6 -1 -12 8 -5 10 -18 6 -35 l-7 -27 -157 4 c-179 3 -221 16 -257 78 -18 32
-20 55 -23 288 l-4 252 51 0 50 0 3 -234z m606 -73 l-3 -308 -45 0 -45 0 -3
308 -2 307 50 0 50 0 -2 -307z m712 256 l0 -51 -112 4 -113 3 0 -260 0 -260
-45 0 -45 0 0 267 c0 146 -3 262 -6 257 -3 -6 -52 -8 -109 -7 l-104 3 -4 34
c-7 64 -18 61 273 61 l265 0 0 -51z m640 1 l0 -50 -149 0 c-82 0 -161 -4 -174
-9 -40 -16 -49 -55 -45 -214 4 -197 -7 -187 205 -187 l164 0 -3 -52 -3 -53
-174 3 c-203 3 -233 11 -266 77 -18 36 -20 60 -20 230 0 164 2 195 18 223 10
19 22 30 29 26 6 -4 8 -3 5 3 -8 13 13 32 50 43 15 4 103 9 196 9 l167 1 0
-50z m272 -77 l3 -128 145 0 145 0 5 125 5 125 48 3 47 3 0 -83 c2 -355 -1
-523 -9 -531 -4 -4 -26 -7 -47 -5 l-39 3 -3 128 -3 127 -149 0 -149 0 -3 -127
-3 -126 -35 -2 c-63 -2 -60 -19 -60 304 0 164 3 301 7 304 3 4 26 7 49 7 l43
0 3 -127z m1106 75 l3 -47 -108 -3 -108 -3 -5 -255 -5 -255 -45 0 -45 0 -3
257 -2 257 -108 3 -107 3 -3 33 c-6 65 -19 63 270 60 l263 -3 3 -47z m637 2
l0 -45 -232 -3 -233 -2 0 50 0 50 233 -2 232 -3 0 -45z m643 -2 l3 -48 -159 0
c-146 0 -162 -2 -186 -21 l-26 -20 0 -162 c0 -89 4 -169 10 -177 6 -9 5 -17
-2 -21 -5 -4 70 -7 168 -8 99 -1 183 -6 187 -10 5 -5 7 -28 5 -52 l-3 -44
-175 0 c-151 0 -180 3 -213 19 -25 12 -36 24 -33 33 3 8 1 11 -4 8 -19 -12
-41 66 -47 164 -7 110 4 274 18 266 5 -4 6 1 3 9 -12 32 40 96 91 109 11 3 97
4 190 3 l170 -1 3 -47z m267 -85 c0 -72 3 -129 8 -126 4 2 74 5 155 5 l147 0
-3 129 -3 130 48 -3 48 -3 0 -305 0 -305 -45 0 -45 0 0 130 0 130 -152 -3
-152 -3 -3 -127 -3 -127 -45 0 -45 0 -3 308 -2 308 47 -3 48 -3 0 -132z m-917
-174 l-3 -44 -177 -3 -178 -2 0 -39 c0 -23 8 -48 21 -64 20 -26 21 -27 182
-29 l162 -3 2 -50 c0 -27 -3 -55 -8 -61 -5 -6 -68 -9 -178 -8 -147 1 -175 4
-203 21 -55 32 -72 74 -76 189 -6 153 -22 143 231 146 116 2 216 0 220 -3 5
-4 7 -26 5 -50z"/>
<path d="M791 4274 c0 -11 3 -14 6 -6 3 7 2 16 -1 19 -3 4 -6 -2 -5 -13z"/>
<path d="M885 4280 c-3 -5 -1 -10 4 -10 6 0 11 5 11 10 0 6 -2 10 -4 10 -3 0
-8 -4 -11 -10z"/>
<path d="M1138 4283 c12 -2 32 -2 45 0 12 2 2 4 -23 4 -25 0 -35 -2 -22 -4z"/>
<path d="M850 3870 c0 -5 5 -10 11 -10 5 0 7 5 4 10 -3 6 -8 10 -11 10 -2 0
-4 -4 -4 -10z"/>
<path d="M983 3833 c9 -2 23 -2 30 0 6 3 -1 5 -18 5 -16 0 -22 -2 -12 -5z"/>
<path d="M1241 3804 c0 -11 3 -14 6 -6 3 7 2 16 -1 19 -3 4 -6 -2 -5 -13z"/>
<path d="M1470 4340 c-9 -6 -10 -10 -3 -10 6 0 15 5 18 10 8 12 4 12 -15 0z"/>
<path d="M1526 4257 c3 -10 9 -15 12 -12 3 3 0 11 -7 18 -10 9 -11 8 -5 -6z"/>
<path d="M1520 4144 c0 -8 5 -12 10 -9 6 4 8 11 5 16 -9 14 -15 11 -15 -7z"/>
<path d="M2132 4180 c0 -19 2 -27 5 -17 2 9 2 25 0 35 -3 9 -5 1 -5 -18z"/>
<path d="M2132 4000 c0 -14 2 -19 5 -12 2 6 2 18 0 25 -3 6 -5 1 -5 -13z"/>
<path d="M2851 4344 c0 -11 3 -14 6 -6 3 7 2 16 -1 19 -3 4 -6 -2 -5 -13z"/>
<path d="M2703 4293 c15 -2 39 -2 55 0 15 2 2 4 -28 4 -30 0 -43 -2 -27 -4z"/>
<path d="M3198 4288 c5 -5 16 -8 23 -6 8 3 3 7 -10 11 -17 4 -21 3 -13 -5z"/>
<path d="M3135 4250 c-3 -5 -1 -10 4 -10 6 0 11 5 11 10 0 6 -2 10 -4 10 -3 0
-8 -4 -11 -10z"/>
<path d="M3073 3970 c0 -30 2 -43 4 -27 2 15 2 39 0 55 -2 15 -4 2 -4 -28z"/>
<path d="M3130 3872 c0 -5 7 -9 15 -9 8 0 12 4 9 9 -3 4 -9 8 -15 8 -5 0 -9
-4 -9 -8z"/>
<path d="M3253 3823 c9 -2 25 -2 35 0 9 3 1 5 -18 5 -19 0 -27 -2 -17 -5z"/>
<path d="M3762 4330 c0 -14 2 -19 5 -12 2 6 2 18 0 25 -3 6 -5 1 -5 -13z"/>
<path d="M4161 4094 c0 -11 3 -14 6 -6 3 7 2 16 -1 19 -3 4 -6 -2 -5 -13z"/>
<path d="M3701 4014 c0 -11 3 -14 6 -6 3 7 2 16 -1 19 -3 4 -6 -2 -5 -13z"/>
<path d="M3700 3965 c0 -14 4 -25 9 -25 4 0 6 11 3 25 -2 14 -6 25 -8 25 -2 0
-4 -11 -4 -25z"/>
<path d="M3701 3794 c0 -11 3 -14 6 -6 3 7 2 16 -1 19 -3 4 -6 -2 -5 -13z"/>
<path d="M4111 3784 c0 -11 3 -14 6 -6 3 7 2 16 -1 19 -3 4 -6 -2 -5 -13z"/>
<path d="M4586 3845 c4 -8 8 -15 10 -15 2 0 4 7 4 15 0 8 -4 15 -10 15 -5 0
-7 -7 -4 -15z"/>
<path d="M5333 4293 c9 -2 25 -2 35 0 9 3 1 5 -18 5 -19 0 -27 -2 -17 -5z"/>
<path d="M5740 4294 c0 -8 5 -12 10 -9 6 4 8 11 5 16 -9 14 -15 11 -15 -7z"/>
<path d="M5883 4283 c15 -2 39 -2 55 0 15 2 2 4 -28 4 -30 0 -43 -2 -27 -4z"/>
<path d="M6013 4283 c9 -2 25 -2 35 0 9 3 1 5 -18 5 -19 0 -27 -2 -17 -5z"/>
<path d="M5765 3950 c-3 -5 -1 -10 4 -10 6 0 11 5 11 10 0 6 -2 10 -4 10 -3 0
-8 -4 -11 -10z"/>
<path d="M6138 3823 c7 -3 16 -2 19 1 4 3 -2 6 -13 5 -11 0 -14 -3 -6 -6z"/>
</g>
</svg>
